<?xml version="1.0" encoding="UTF-8"?>
<svg xmlns="http://www.w3.org/2000/svg" xmlns:xlink="http://www.w3.org/1999/xlink" width="3001" height="3001" viewBox="0 0 3001 3001">

<path fill-rule="nonzero" fill="rgb(0%, 0%, 0%)" fill-opacity="1" d="M 890.128906 990.050781 L 2111.859375 990.050781 C 2150.109375 990.050781 2184.878906 1005.679688 2210.050781 1030.859375 C 2210.5 1031.308594 2210.921875 1031.769531 2211.320312 1032.238281 C 2235.75 1057.308594 2250.871094 1091.511719 2250.871094 1129.050781 L 2250.871094 1870.949219 C 2250.871094 1909.140625 2235.230469 1943.871094 2210.050781 1969.050781 L 2209.960938 1969.140625 C 2184.789062 1994.308594 2150.050781 2009.949219 2111.859375 2009.949219 L 890.128906 2009.949219 C 851.96875 2009.949219 817.214844 1994.308594 791.988281 1969.089844 L 791.945312 1969.140625 C 766.765625 1943.960938 751.132812 1909.199219 751.132812 1870.949219 L 751.132812 1129.050781 C 751.132812 1090.800781 766.765625 1056.039062 791.945312 1030.859375 C 792.394531 1030.410156 792.867188 1029.980469 793.34375 1029.570312 C 818.449219 1005.148438 852.644531 990.050781 890.128906 990.050781 Z M 2111.859375 1035.5 L 890.128906 1035.5 C 864.871094 1035.5 841.910156 1045.589844 825.089844 1061.898438 C 824.769531 1062.28125 824.429688 1062.640625 824.074219 1062.988281 C 812.277344 1074.78125 803.601562 1089.699219 799.402344 1106.328125 L 2202.609375 1106.328125 C 2198.539062 1090.171875 2190.269531 1075.648438 2179.03125 1064.019531 L 2177.929688 1062.988281 C 2160.96875 1046.03125 2137.570312 1035.5 2111.859375 1035.5 Z M 2205.421875 1870.949219 L 2205.421875 1336.328125 L 796.582031 1336.328125 L 796.582031 1870.949219 C 796.582031 1896.648438 807.113281 1920.050781 824.074219 1937.011719 L 824.027344 1937.058594 L 824.074219 1937.101562 C 840.976562 1954.011719 864.355469 1964.5 890.128906 1964.5 L 2111.859375 1964.5 C 2137.601562 1964.5 2161.019531 1953.980469 2177.96875 1937.058594 C 2194.898438 1920.101562 2205.421875 1896.691406 2205.421875 1870.949219 Z M 915.042969 1483.050781 C 902.496094 1483.050781 892.316406 1472.871094 892.316406 1460.320312 C 892.316406 1447.769531 902.496094 1437.601562 915.042969 1437.601562 L 1486.238281 1437.601562 C 1498.78125 1437.601562 1508.960938 1447.769531 1508.960938 1460.320312 C 1508.960938 1472.871094 1498.78125 1483.050781 1486.238281 1483.050781 Z M 915.042969 1583.628906 C 902.496094 1583.628906 892.316406 1573.449219 892.316406 1560.898438 C 892.316406 1548.351562 902.496094 1538.179688 915.042969 1538.179688 L 1226.011719 1538.179688 C 1238.558594 1538.179688 1248.738281 1548.351562 1248.738281 1560.898438 C 1248.738281 1573.449219 1238.558594 1583.628906 1226.011719 1583.628906 Z M 1888.558594 1651.691406 L 2017.75 1651.691406 C 2030.289062 1651.691406 2040.46875 1661.871094 2040.46875 1674.421875 L 2040.46875 1803.609375 C 2040.46875 1816.148438 2030.289062 1826.328125 2017.75 1826.328125 L 1888.558594 1826.328125 C 1876.011719 1826.328125 1865.839844 1816.148438 1865.839844 1803.609375 L 1865.839844 1674.421875 C 1865.839844 1661.871094 1876.011719 1651.691406 1888.558594 1651.691406 "/>
</svg>
